<svg width="111" height="112" fill="none" xmlns="http://www.w3.org/2000/svg"><path d="M78 66.34v-27.7c0-5.52-5.6-10.93-12.52-10.93a14.36 14.36 0 0 0-9.9 4.2L43.09 19.58a32.2 32.2 0 0 1 25.28-9c16.24 1.54 26.94 14.69 26.94 28.45v45L78 66.34Z" fill="url('#paint0_linear_528_1332')"/><path d="M16.1 28v45c0 13.76 10.71 26.91 26.94 28.45a32.2 32.2 0 0 0 25.28-9L55.83 80.12a14.36 14.36 0 0 1-9.9 4.2c-6.92 0-12.52-5.41-12.52-10.93v-27.5" fill="url('#paint1_linear_528_1332')"/><path d="m62.8 51.19 32.49 32.58v9c0 2.95-2.92 6.06-6.43 6.12-2 0-4.09-1.57-5.39-2.87L50.4 62.78l-34.29-34.5v-9c0-2.95 2.92-6.06 6.43-6.12 2 0 4.09 1.57 5.39 2.87L62.8 51.19Z" fill="url('#paint2_linear_528_1332')"/><defs><linearGradient id="paint0_linear_528_1332" x1="50.96" y1="9.49" x2="108.59" y2="70.34" gradientUnits="userSpaceOnUse"><stop offset=".06" stop-color="#B6D7FE"/><stop offset=".12" stop-color="#A6D4FC"/><stop offset=".26" stop-color="#88CEF8"/><stop offset=".38" stop-color="#76CAF6"/><stop offset=".47" stop-color="#70C9F5"/><stop offset=".73" stop-color="#18A0EC"/></linearGradient><linearGradient id="paint1_linear_528_1332" x1="21.32" y1="35.88" x2="55.58" y2="117.2" gradientUnits="userSpaceOnUse"><stop offset=".01" stop-color="#8537FF"/><stop offset=".49" stop-color="#D095FE"/><stop offset=".72" stop-color="#E9ADFF"/><stop offset=".85" stop-color="#F8BCFF"/></linearGradient><linearGradient id="paint2_linear_528_1332" x1="98.38" y1="97.71" x2="17.91" y2="19.16" gradientUnits="userSpaceOnUse"><stop stop-color="#35D7FD"/><stop offset=".68" stop-color="#9A68FE"/><stop offset="1" stop-color="#B45DFF"/></linearGradient></defs></svg>