<svg width="60" height="108" xmlns="http://www.w3.org/2000/svg"><g id="定稿" stroke="none" stroke-width="1" fill="none" fill-rule="evenodd"><g id="Sender-svg" transform="translate(-924 -240)" fill="#2E79DF"><g id="1" transform="translate(240 240)"><path d="M731.03 44.739a18.174 18.174 0 0 1 4.39 2.294c1.742 1.253 3.193 2.817 4.268 4.687a14.56 14.56 0 0 1 1.306 3.012c.322 1.05.528 2.137.622 3.25.667 7.827-4.162 16.928-12.756 23.689l-.388.301a44.617 44.617 0 0 1-4.806 3.216L684.308 108c-1.155-7.67.975-15.55 5.846-21.623a27.942 27.942 0 0 1 7.81-6.705l22.992-13.326a11.814 11.814 0 0 0 5.717-8.154c.471-2.626.057-5.42-1.371-7.903a11.578 11.578 0 0 0-4.702-4.516 11.74 11.74 0 0 0-7.104-1.207c.138-.065.277-.129.417-.19a36.309 36.309 0 0 1 6.148-.99c3.993-.285 7.744.173 10.97 1.353ZM743.692 0c1.155 7.67-.975 15.55-5.846 21.623a27.942 27.942 0 0 1-7.81 6.705l-22.992 13.326a11.814 11.814 0 0 0-5.717 8.154 11.665 11.665 0 0 0 1.371 7.903 11.578 11.578 0 0 0 4.702 4.516 11.74 11.74 0 0 0 7.104 1.207c-.138.065-.277.129-.417.19a36.309 36.309 0 0 1-6.148.99c-3.993.285-7.744-.173-10.97-1.353a18.174 18.174 0 0 1-4.388-2.294c-1.743-1.253-3.194-2.817-4.27-4.687a14.56 14.56 0 0 1-1.305-3.012 15.538 15.538 0 0 1-.622-3.25c-.667-7.827 4.162-16.928 12.756-23.689l.388-.301a44.617 44.617 0 0 1 4.806-3.216L743.692 0Z" id="symble-Color"/></g></g></g></svg>